G75*
%MOIN*%
%OFA0B0*%
%FSLAX25Y25*%
%IPPOS*%
%LPD*%
%AMOC8*
5,1,8,0,0,1.08239X$1,22.5*
%
%ADD10C,0.06312*%
%ADD11R,0.09658X0.09658*%
%ADD12C,0.09658*%
%ADD13C,0.13461*%
%ADD14OC8,0.13461*%
%ADD15R,0.06737X0.06737*%
%ADD16C,0.06737*%
%ADD17C,0.00039*%
%ADD18C,0.06343*%
%ADD19C,0.08200*%
%ADD20C,0.12611*%
%ADD21C,0.08300*%
%ADD22R,0.08477X0.08477*%
%ADD23C,0.08477*%
%ADD24C,0.07800*%
%ADD25OC8,0.07800*%
%ADD26C,0.14186*%
%ADD27C,0.08674*%
%ADD28C,0.04762*%
D10*
X0269470Y0650160D03*
X0269470Y0685593D03*
D11*
X0245848Y0677719D03*
D12*
X0245848Y0658034D03*
X0293092Y0658034D03*
X0293092Y0677719D03*
D13*
X0344273Y0387655D03*
D14*
X0344273Y0437655D03*
D15*
X0408367Y0444899D03*
X0413367Y0299899D03*
X0403289Y0264899D03*
X0233210Y0300135D03*
D16*
X0233210Y0329662D03*
X0413131Y0264899D03*
X0433052Y0299899D03*
X0428052Y0444899D03*
D17*
X0372355Y0502516D02*
X0372738Y0502899D01*
X0373049Y0503344D01*
X0373278Y0503835D01*
X0373418Y0504358D01*
X0373466Y0504899D01*
X0373418Y0505439D01*
X0373278Y0505962D01*
X0367433Y0505962D01*
X0367292Y0505439D01*
X0367245Y0504899D01*
X0367292Y0504358D01*
X0367433Y0503835D01*
X0367662Y0503344D01*
X0367973Y0502899D01*
X0368356Y0502516D01*
X0368800Y0502205D01*
X0369292Y0501976D01*
X0369815Y0501836D01*
X0370355Y0501788D01*
X0370896Y0501836D01*
X0371419Y0501976D01*
X0371911Y0502205D01*
X0372355Y0502516D01*
X0372354Y0502515D02*
X0368357Y0502515D01*
X0368319Y0502553D02*
X0372392Y0502553D01*
X0372430Y0502591D02*
X0368281Y0502591D01*
X0368243Y0502629D02*
X0372468Y0502629D01*
X0372505Y0502667D02*
X0368205Y0502667D01*
X0368168Y0502705D02*
X0372543Y0502705D01*
X0372581Y0502743D02*
X0368130Y0502743D01*
X0368092Y0502780D02*
X0372619Y0502780D01*
X0372657Y0502818D02*
X0368054Y0502818D01*
X0368016Y0502856D02*
X0372695Y0502856D01*
X0372733Y0502894D02*
X0367978Y0502894D01*
X0367950Y0502932D02*
X0372761Y0502932D01*
X0372787Y0502970D02*
X0367924Y0502970D01*
X0367897Y0503008D02*
X0372814Y0503008D01*
X0372841Y0503046D02*
X0367870Y0503046D01*
X0367844Y0503083D02*
X0372867Y0503083D01*
X0372894Y0503121D02*
X0367817Y0503121D01*
X0367791Y0503159D02*
X0372920Y0503159D01*
X0372947Y0503197D02*
X0367764Y0503197D01*
X0367738Y0503235D02*
X0372973Y0503235D01*
X0373000Y0503273D02*
X0367711Y0503273D01*
X0367685Y0503311D02*
X0373026Y0503311D01*
X0373052Y0503349D02*
X0367659Y0503349D01*
X0367642Y0503386D02*
X0373069Y0503386D01*
X0373087Y0503424D02*
X0367624Y0503424D01*
X0367606Y0503462D02*
X0373105Y0503462D01*
X0373122Y0503500D02*
X0367589Y0503500D01*
X0367571Y0503538D02*
X0373140Y0503538D01*
X0373158Y0503576D02*
X0367553Y0503576D01*
X0367536Y0503614D02*
X0373175Y0503614D01*
X0373193Y0503652D02*
X0367518Y0503652D01*
X0367500Y0503690D02*
X0373211Y0503690D01*
X0373228Y0503727D02*
X0367483Y0503727D01*
X0367465Y0503765D02*
X0373246Y0503765D01*
X0373264Y0503803D02*
X0367447Y0503803D01*
X0367431Y0503841D02*
X0373280Y0503841D01*
X0373290Y0503879D02*
X0367421Y0503879D01*
X0367411Y0503917D02*
X0373300Y0503917D01*
X0373310Y0503955D02*
X0367401Y0503955D01*
X0367390Y0503993D02*
X0373321Y0503993D01*
X0373331Y0504030D02*
X0367380Y0504030D01*
X0367370Y0504068D02*
X0373341Y0504068D01*
X0373351Y0504106D02*
X0367360Y0504106D01*
X0367350Y0504144D02*
X0373361Y0504144D01*
X0373371Y0504182D02*
X0367340Y0504182D01*
X0367330Y0504220D02*
X0373381Y0504220D01*
X0373392Y0504258D02*
X0367319Y0504258D01*
X0367309Y0504296D02*
X0373402Y0504296D01*
X0373412Y0504334D02*
X0367299Y0504334D01*
X0367291Y0504371D02*
X0373420Y0504371D01*
X0373423Y0504409D02*
X0367288Y0504409D01*
X0367285Y0504447D02*
X0373426Y0504447D01*
X0373430Y0504485D02*
X0367281Y0504485D01*
X0367278Y0504523D02*
X0373433Y0504523D01*
X0373436Y0504561D02*
X0367275Y0504561D01*
X0367271Y0504599D02*
X0373439Y0504599D01*
X0373443Y0504637D02*
X0367268Y0504637D01*
X0367265Y0504674D02*
X0373446Y0504674D01*
X0373449Y0504712D02*
X0367262Y0504712D01*
X0367258Y0504750D02*
X0373453Y0504750D01*
X0373456Y0504788D02*
X0367255Y0504788D01*
X0367252Y0504826D02*
X0373459Y0504826D01*
X0373463Y0504864D02*
X0367248Y0504864D01*
X0367246Y0504902D02*
X0373465Y0504902D01*
X0373462Y0504940D02*
X0367249Y0504940D01*
X0367252Y0504978D02*
X0373459Y0504978D01*
X0373456Y0505015D02*
X0367255Y0505015D01*
X0367259Y0505053D02*
X0373452Y0505053D01*
X0373449Y0505091D02*
X0367262Y0505091D01*
X0367265Y0505129D02*
X0373446Y0505129D01*
X0373442Y0505167D02*
X0367269Y0505167D01*
X0367272Y0505205D02*
X0373439Y0505205D01*
X0373436Y0505243D02*
X0367275Y0505243D01*
X0367279Y0505281D02*
X0373432Y0505281D01*
X0373429Y0505318D02*
X0367282Y0505318D01*
X0367285Y0505356D02*
X0373426Y0505356D01*
X0373422Y0505394D02*
X0367289Y0505394D01*
X0367292Y0505432D02*
X0373419Y0505432D01*
X0373410Y0505470D02*
X0367301Y0505470D01*
X0367311Y0505508D02*
X0373400Y0505508D01*
X0373390Y0505546D02*
X0367321Y0505546D01*
X0367331Y0505584D02*
X0373380Y0505584D01*
X0373370Y0505621D02*
X0367341Y0505621D01*
X0367352Y0505659D02*
X0373359Y0505659D01*
X0373349Y0505697D02*
X0367362Y0505697D01*
X0367372Y0505735D02*
X0373339Y0505735D01*
X0373329Y0505773D02*
X0367382Y0505773D01*
X0367392Y0505811D02*
X0373319Y0505811D01*
X0373309Y0505849D02*
X0367402Y0505849D01*
X0367412Y0505887D02*
X0373299Y0505887D01*
X0373288Y0505925D02*
X0367423Y0505925D01*
X0367433Y0505962D02*
X0367662Y0506454D01*
X0367973Y0506898D01*
X0368356Y0507281D01*
X0368800Y0507592D01*
X0369292Y0507821D01*
X0369815Y0507962D01*
X0370355Y0508009D01*
X0370896Y0507962D01*
X0371419Y0507821D01*
X0371911Y0507592D01*
X0372355Y0507281D01*
X0372738Y0506898D01*
X0373049Y0506454D01*
X0373278Y0505962D01*
X0373261Y0506000D02*
X0367450Y0506000D01*
X0367468Y0506038D02*
X0373243Y0506038D01*
X0373225Y0506076D02*
X0367486Y0506076D01*
X0367503Y0506114D02*
X0373208Y0506114D01*
X0373190Y0506152D02*
X0367521Y0506152D01*
X0367539Y0506190D02*
X0373172Y0506190D01*
X0373155Y0506228D02*
X0367556Y0506228D01*
X0367574Y0506265D02*
X0373137Y0506265D01*
X0373119Y0506303D02*
X0367592Y0506303D01*
X0367609Y0506341D02*
X0373102Y0506341D01*
X0373084Y0506379D02*
X0367627Y0506379D01*
X0367645Y0506417D02*
X0373066Y0506417D01*
X0373048Y0506455D02*
X0367663Y0506455D01*
X0367689Y0506493D02*
X0373022Y0506493D01*
X0372995Y0506531D02*
X0367716Y0506531D01*
X0367742Y0506569D02*
X0372969Y0506569D01*
X0372942Y0506606D02*
X0367769Y0506606D01*
X0367795Y0506644D02*
X0372916Y0506644D01*
X0372889Y0506682D02*
X0367822Y0506682D01*
X0367848Y0506720D02*
X0372863Y0506720D01*
X0372836Y0506758D02*
X0367875Y0506758D01*
X0367901Y0506796D02*
X0372810Y0506796D01*
X0372783Y0506834D02*
X0367928Y0506834D01*
X0367954Y0506872D02*
X0372757Y0506872D01*
X0372727Y0506909D02*
X0367984Y0506909D01*
X0368022Y0506947D02*
X0372689Y0506947D01*
X0372651Y0506985D02*
X0368060Y0506985D01*
X0368098Y0507023D02*
X0372613Y0507023D01*
X0372575Y0507061D02*
X0368136Y0507061D01*
X0368174Y0507099D02*
X0372537Y0507099D01*
X0372499Y0507137D02*
X0368212Y0507137D01*
X0368250Y0507175D02*
X0372461Y0507175D01*
X0372424Y0507213D02*
X0368287Y0507213D01*
X0368325Y0507250D02*
X0372386Y0507250D01*
X0372345Y0507288D02*
X0368366Y0507288D01*
X0368420Y0507326D02*
X0372291Y0507326D01*
X0372237Y0507364D02*
X0368474Y0507364D01*
X0368528Y0507402D02*
X0372183Y0507402D01*
X0372128Y0507440D02*
X0368583Y0507440D01*
X0368637Y0507478D02*
X0372074Y0507478D01*
X0372020Y0507516D02*
X0368691Y0507516D01*
X0368745Y0507553D02*
X0371966Y0507553D01*
X0371912Y0507591D02*
X0368799Y0507591D01*
X0368879Y0507629D02*
X0371832Y0507629D01*
X0371750Y0507667D02*
X0368961Y0507667D01*
X0369042Y0507705D02*
X0371669Y0507705D01*
X0371588Y0507743D02*
X0369123Y0507743D01*
X0369204Y0507781D02*
X0371507Y0507781D01*
X0371425Y0507819D02*
X0369286Y0507819D01*
X0369423Y0507856D02*
X0371288Y0507856D01*
X0371147Y0507894D02*
X0369564Y0507894D01*
X0369706Y0507932D02*
X0371005Y0507932D01*
X0370798Y0507970D02*
X0369913Y0507970D01*
X0370346Y0508008D02*
X0370365Y0508008D01*
X0372300Y0502477D02*
X0368411Y0502477D01*
X0368466Y0502439D02*
X0372245Y0502439D01*
X0372191Y0502402D02*
X0368520Y0502402D01*
X0368574Y0502364D02*
X0372137Y0502364D01*
X0372083Y0502326D02*
X0368628Y0502326D01*
X0368682Y0502288D02*
X0372029Y0502288D01*
X0371975Y0502250D02*
X0368736Y0502250D01*
X0368790Y0502212D02*
X0371921Y0502212D01*
X0371845Y0502174D02*
X0368866Y0502174D01*
X0368947Y0502136D02*
X0371764Y0502136D01*
X0371682Y0502099D02*
X0369029Y0502099D01*
X0369110Y0502061D02*
X0371601Y0502061D01*
X0371520Y0502023D02*
X0369191Y0502023D01*
X0369272Y0501985D02*
X0371439Y0501985D01*
X0371312Y0501947D02*
X0369399Y0501947D01*
X0369541Y0501909D02*
X0371170Y0501909D01*
X0371029Y0501871D02*
X0369682Y0501871D01*
X0369842Y0501833D02*
X0370869Y0501833D01*
X0370436Y0501795D02*
X0370275Y0501795D01*
X0329194Y0501795D02*
X0322934Y0501795D01*
X0322934Y0501769D02*
X0329194Y0501769D01*
X0329194Y0508029D01*
X0322934Y0508029D01*
X0322934Y0501769D01*
X0322934Y0501833D02*
X0329194Y0501833D01*
X0329194Y0501871D02*
X0322934Y0501871D01*
X0322934Y0501909D02*
X0329194Y0501909D01*
X0329194Y0501947D02*
X0322934Y0501947D01*
X0322934Y0501985D02*
X0329194Y0501985D01*
X0329194Y0502023D02*
X0322934Y0502023D01*
X0322934Y0502061D02*
X0329194Y0502061D01*
X0329194Y0502099D02*
X0322934Y0502099D01*
X0322934Y0502136D02*
X0329194Y0502136D01*
X0329194Y0502174D02*
X0322934Y0502174D01*
X0322934Y0502212D02*
X0329194Y0502212D01*
X0329194Y0502250D02*
X0322934Y0502250D01*
X0322934Y0502288D02*
X0329194Y0502288D01*
X0329194Y0502326D02*
X0322934Y0502326D01*
X0322934Y0502364D02*
X0329194Y0502364D01*
X0329194Y0502402D02*
X0322934Y0502402D01*
X0322934Y0502439D02*
X0329194Y0502439D01*
X0329194Y0502477D02*
X0322934Y0502477D01*
X0322934Y0502515D02*
X0329194Y0502515D01*
X0329194Y0502553D02*
X0322934Y0502553D01*
X0322934Y0502591D02*
X0329194Y0502591D01*
X0329194Y0502629D02*
X0322934Y0502629D01*
X0322934Y0502667D02*
X0329194Y0502667D01*
X0329194Y0502705D02*
X0322934Y0502705D01*
X0322934Y0502743D02*
X0329194Y0502743D01*
X0329194Y0502780D02*
X0322934Y0502780D01*
X0322934Y0502818D02*
X0329194Y0502818D01*
X0329194Y0502856D02*
X0322934Y0502856D01*
X0322934Y0502894D02*
X0329194Y0502894D01*
X0329194Y0502932D02*
X0322934Y0502932D01*
X0322934Y0502970D02*
X0329194Y0502970D01*
X0329194Y0503008D02*
X0322934Y0503008D01*
X0322934Y0503046D02*
X0329194Y0503046D01*
X0329194Y0503083D02*
X0322934Y0503083D01*
X0322934Y0503121D02*
X0329194Y0503121D01*
X0329194Y0503159D02*
X0322934Y0503159D01*
X0322934Y0503197D02*
X0329194Y0503197D01*
X0329194Y0503235D02*
X0322934Y0503235D01*
X0322934Y0503273D02*
X0329194Y0503273D01*
X0329194Y0503311D02*
X0322934Y0503311D01*
X0322934Y0503349D02*
X0329194Y0503349D01*
X0329194Y0503386D02*
X0322934Y0503386D01*
X0322934Y0503424D02*
X0329194Y0503424D01*
X0329194Y0503462D02*
X0322934Y0503462D01*
X0322934Y0503500D02*
X0329194Y0503500D01*
X0329194Y0503538D02*
X0322934Y0503538D01*
X0322934Y0503576D02*
X0329194Y0503576D01*
X0329194Y0503614D02*
X0322934Y0503614D01*
X0322934Y0503652D02*
X0329194Y0503652D01*
X0329194Y0503690D02*
X0322934Y0503690D01*
X0322934Y0503727D02*
X0329194Y0503727D01*
X0329194Y0503765D02*
X0322934Y0503765D01*
X0322934Y0503803D02*
X0329194Y0503803D01*
X0329194Y0503841D02*
X0322934Y0503841D01*
X0322934Y0503879D02*
X0329194Y0503879D01*
X0329194Y0503917D02*
X0322934Y0503917D01*
X0322934Y0503955D02*
X0329194Y0503955D01*
X0329194Y0503993D02*
X0322934Y0503993D01*
X0322934Y0504030D02*
X0329194Y0504030D01*
X0329194Y0504068D02*
X0322934Y0504068D01*
X0322934Y0504106D02*
X0329194Y0504106D01*
X0329194Y0504144D02*
X0322934Y0504144D01*
X0322934Y0504182D02*
X0329194Y0504182D01*
X0329194Y0504220D02*
X0322934Y0504220D01*
X0322934Y0504258D02*
X0329194Y0504258D01*
X0329194Y0504296D02*
X0322934Y0504296D01*
X0322934Y0504334D02*
X0329194Y0504334D01*
X0329194Y0504371D02*
X0322934Y0504371D01*
X0322934Y0504409D02*
X0329194Y0504409D01*
X0329194Y0504447D02*
X0322934Y0504447D01*
X0322934Y0504485D02*
X0329194Y0504485D01*
X0329194Y0504523D02*
X0322934Y0504523D01*
X0322934Y0504561D02*
X0329194Y0504561D01*
X0329194Y0504599D02*
X0322934Y0504599D01*
X0322934Y0504637D02*
X0329194Y0504637D01*
X0329194Y0504674D02*
X0322934Y0504674D01*
X0322934Y0504712D02*
X0329194Y0504712D01*
X0329194Y0504750D02*
X0322934Y0504750D01*
X0322934Y0504788D02*
X0329194Y0504788D01*
X0329194Y0504826D02*
X0322934Y0504826D01*
X0322934Y0504864D02*
X0329194Y0504864D01*
X0329194Y0504902D02*
X0322934Y0504902D01*
X0322934Y0504940D02*
X0329194Y0504940D01*
X0329194Y0504978D02*
X0322934Y0504978D01*
X0322934Y0505015D02*
X0329194Y0505015D01*
X0329194Y0505053D02*
X0322934Y0505053D01*
X0322934Y0505091D02*
X0329194Y0505091D01*
X0329194Y0505129D02*
X0322934Y0505129D01*
X0322934Y0505167D02*
X0329194Y0505167D01*
X0329194Y0505205D02*
X0322934Y0505205D01*
X0322934Y0505243D02*
X0329194Y0505243D01*
X0329194Y0505281D02*
X0322934Y0505281D01*
X0322934Y0505318D02*
X0329194Y0505318D01*
X0329194Y0505356D02*
X0322934Y0505356D01*
X0322934Y0505394D02*
X0329194Y0505394D01*
X0329194Y0505432D02*
X0322934Y0505432D01*
X0322934Y0505470D02*
X0329194Y0505470D01*
X0329194Y0505508D02*
X0322934Y0505508D01*
X0322934Y0505546D02*
X0329194Y0505546D01*
X0329194Y0505584D02*
X0322934Y0505584D01*
X0322934Y0505621D02*
X0329194Y0505621D01*
X0329194Y0505659D02*
X0322934Y0505659D01*
X0322934Y0505697D02*
X0329194Y0505697D01*
X0329194Y0505735D02*
X0322934Y0505735D01*
X0322934Y0505773D02*
X0329194Y0505773D01*
X0329194Y0505811D02*
X0322934Y0505811D01*
X0322934Y0505849D02*
X0329194Y0505849D01*
X0329194Y0505887D02*
X0322934Y0505887D01*
X0322934Y0505925D02*
X0329194Y0505925D01*
X0329194Y0505962D02*
X0322934Y0505962D01*
X0322934Y0506000D02*
X0329194Y0506000D01*
X0329194Y0506038D02*
X0322934Y0506038D01*
X0322934Y0506076D02*
X0329194Y0506076D01*
X0329194Y0506114D02*
X0322934Y0506114D01*
X0322934Y0506152D02*
X0329194Y0506152D01*
X0329194Y0506190D02*
X0322934Y0506190D01*
X0322934Y0506228D02*
X0329194Y0506228D01*
X0329194Y0506265D02*
X0322934Y0506265D01*
X0322934Y0506303D02*
X0329194Y0506303D01*
X0329194Y0506341D02*
X0322934Y0506341D01*
X0322934Y0506379D02*
X0329194Y0506379D01*
X0329194Y0506417D02*
X0322934Y0506417D01*
X0322934Y0506455D02*
X0329194Y0506455D01*
X0329194Y0506493D02*
X0322934Y0506493D01*
X0322934Y0506531D02*
X0329194Y0506531D01*
X0329194Y0506569D02*
X0322934Y0506569D01*
X0322934Y0506606D02*
X0329194Y0506606D01*
X0329194Y0506644D02*
X0322934Y0506644D01*
X0322934Y0506682D02*
X0329194Y0506682D01*
X0329194Y0506720D02*
X0322934Y0506720D01*
X0322934Y0506758D02*
X0329194Y0506758D01*
X0329194Y0506796D02*
X0322934Y0506796D01*
X0322934Y0506834D02*
X0329194Y0506834D01*
X0329194Y0506872D02*
X0322934Y0506872D01*
X0322934Y0506909D02*
X0329194Y0506909D01*
X0329194Y0506947D02*
X0322934Y0506947D01*
X0322934Y0506985D02*
X0329194Y0506985D01*
X0329194Y0507023D02*
X0322934Y0507023D01*
X0322934Y0507061D02*
X0329194Y0507061D01*
X0329194Y0507099D02*
X0322934Y0507099D01*
X0322934Y0507137D02*
X0329194Y0507137D01*
X0329194Y0507175D02*
X0322934Y0507175D01*
X0322934Y0507213D02*
X0329194Y0507213D01*
X0329194Y0507250D02*
X0322934Y0507250D01*
X0322934Y0507288D02*
X0329194Y0507288D01*
X0329194Y0507326D02*
X0322934Y0507326D01*
X0322934Y0507364D02*
X0329194Y0507364D01*
X0329194Y0507402D02*
X0322934Y0507402D01*
X0322934Y0507440D02*
X0329194Y0507440D01*
X0329194Y0507478D02*
X0322934Y0507478D01*
X0322934Y0507516D02*
X0329194Y0507516D01*
X0329194Y0507553D02*
X0322934Y0507553D01*
X0322934Y0507591D02*
X0329194Y0507591D01*
X0329194Y0507629D02*
X0322934Y0507629D01*
X0322934Y0507667D02*
X0329194Y0507667D01*
X0329194Y0507705D02*
X0322934Y0507705D01*
X0322934Y0507743D02*
X0329194Y0507743D01*
X0329194Y0507781D02*
X0322934Y0507781D01*
X0322934Y0507819D02*
X0329194Y0507819D01*
X0329194Y0507856D02*
X0322934Y0507856D01*
X0322934Y0507894D02*
X0329194Y0507894D01*
X0329194Y0507932D02*
X0322934Y0507932D01*
X0322934Y0507970D02*
X0329194Y0507970D01*
X0329194Y0508008D02*
X0322934Y0508008D01*
D18*
X0200449Y0233750D03*
X0200449Y0243750D03*
X0200449Y0253750D03*
X0422876Y0386038D03*
X0422876Y0396038D03*
X0422876Y0406038D03*
X0466898Y0241424D03*
X0466898Y0231424D03*
X0466898Y0221424D03*
D19*
X0283485Y0357970D02*
X0276085Y0357970D01*
X0276085Y0367970D02*
X0283485Y0367970D01*
X0283485Y0377970D02*
X0276085Y0377970D01*
X0276085Y0387970D02*
X0283485Y0387970D01*
X0283485Y0397970D02*
X0276085Y0397970D01*
X0276085Y0407970D02*
X0283485Y0407970D01*
X0283485Y0417970D02*
X0276085Y0417970D01*
X0276085Y0427970D02*
X0283485Y0427970D01*
X0223485Y0427970D02*
X0216085Y0427970D01*
X0216085Y0417970D02*
X0223485Y0417970D01*
X0223485Y0407970D02*
X0216085Y0407970D01*
X0216085Y0397970D02*
X0223485Y0397970D01*
X0223485Y0387970D02*
X0216085Y0387970D01*
X0216085Y0377970D02*
X0223485Y0377970D01*
X0223485Y0367970D02*
X0216085Y0367970D01*
X0216085Y0357970D02*
X0223485Y0357970D01*
D20*
X0204819Y0587018D03*
X0204819Y0641348D03*
X0491361Y0636473D03*
X0491361Y0582143D03*
D21*
X0430180Y0603708D02*
X0430180Y0611208D01*
X0420180Y0611208D02*
X0420180Y0603708D01*
X0276000Y0608583D02*
X0276000Y0616083D01*
X0266000Y0616083D02*
X0266000Y0608583D01*
D22*
X0206895Y0712458D03*
X0489965Y0711423D03*
D23*
X0469965Y0711423D03*
X0449965Y0711423D03*
X0246895Y0712458D03*
X0226895Y0712458D03*
D24*
X0322165Y0708366D03*
X0322165Y0698366D03*
X0322165Y0688366D03*
X0322165Y0678366D03*
X0322165Y0668366D03*
X0322165Y0658366D03*
X0322165Y0648366D03*
X0322165Y0638366D03*
X0332165Y0638366D03*
X0332165Y0648366D03*
X0322165Y0628366D03*
X0322165Y0618366D03*
X0322165Y0608366D03*
X0322165Y0598366D03*
X0382165Y0598366D03*
X0382165Y0608366D03*
X0382165Y0618366D03*
X0382165Y0628366D03*
X0382165Y0638366D03*
X0382165Y0648366D03*
X0382165Y0658366D03*
X0382165Y0668366D03*
X0382165Y0678366D03*
X0382165Y0688366D03*
X0382165Y0698366D03*
X0382165Y0708366D03*
D25*
X0377165Y0588366D03*
X0367165Y0588366D03*
X0357165Y0588366D03*
X0347165Y0588366D03*
X0337165Y0588366D03*
X0327165Y0588366D03*
D26*
X0319426Y0230994D03*
X0242260Y0230600D03*
D27*
X0348210Y0264544D03*
X0348210Y0324544D03*
D28*
X0390710Y0399899D03*
X0403210Y0419899D03*
X0433210Y0379899D03*
X0433210Y0372399D03*
X0315710Y0534899D03*
X0275710Y0442399D03*
X0255710Y0432399D03*
X0398210Y0574899D03*
M02*
