%
M48
M72
T01C0.02362
T02C0.03543
T03C0.03937
T04C0.04000
T05C0.04173
T06C0.05000
T07C0.05118
T08C0.05512
T09C0.05906
T10C0.07874
T11C0.08661
T12C0.11811
T13C0.13386
%
T01
X255710Y432399
X275710Y442399
X315710Y534899
X398210Y574899
X403210Y419899
X390710Y399899
X433210Y379899
X433210Y372399
T02
X200449Y233750
X200449Y243750
X200449Y253750
X422876Y386038
X422876Y396038
X422876Y406038
X466898Y241424
X466898Y231424
X466898Y221424
T03
X413131Y264899
X403289Y264899
X413367Y299899
X433052Y299899
X428052Y444899
X408367Y444899
X332165Y638366
X332165Y648366
X233210Y329662
X233210Y300135
T04
X219785Y357970
X219785Y367970
X219785Y377970
X219785Y387970
X219785Y397970
X219785Y407970
X219785Y417970
X219785Y427970
X279785Y427970
X279785Y417970
X279785Y407970
X279785Y397970
X279785Y387970
X279785Y377970
X279785Y367970
X279785Y357970
X327165Y588366
X337165Y588366
X347165Y588366
X357165Y588366
X367165Y588366
X377165Y588366
X382165Y598366
X382165Y608366
X382165Y618366
X382165Y628366
X382165Y638366
X382165Y648366
X382165Y658366
X382165Y668366
X382165Y678366
X382165Y688366
X382165Y698366
X382165Y708366
X322165Y708366
X322165Y698366
X322165Y688366
X322165Y678366
X322165Y668366
X322165Y658366
X322165Y648366
X322165Y638366
X322165Y628366
X322165Y618366
X322165Y608366
X322165Y598366
T05
X326064Y504899
X370355Y504899
T06
X420180Y607458
X430180Y607458
X276000Y612333
X266000Y612333
T07
X246895Y712458
X226895Y712458
X206895Y712458
X449965Y711423
X469965Y711423
X489965Y711423
T08
X269470Y685593
X269470Y650160
T09
X245848Y658034
X245848Y677719
X293092Y677719
X293092Y658034
T10
X348210Y324544
X348210Y264544
T11
X344273Y387655
X344273Y437655
T12
X204819Y587018
X204819Y641348
X491361Y636473
X491361Y582143
T13
X319426Y230994
X242260Y230600
M30
