G75*
%MOIN*%
%OFA0B0*%
%FSLAX25Y25*%
%IPPOS*%
%LPD*%
%AMOC8*
5,1,8,0,0,1.08239X$1,22.5*
%
%ADD10R,0.08858X0.08858*%
%ADD11C,0.08858*%
%ADD12C,0.12661*%
%ADD13OC8,0.12661*%
%ADD14R,0.05937X0.05937*%
%ADD15C,0.05937*%
%ADD16C,0.06260*%
%ADD17R,0.06260X0.06260*%
%ADD18C,0.05543*%
%ADD19C,0.00500*%
%ADD20C,0.07400*%
%ADD21C,0.07500*%
%ADD22R,0.07677X0.07677*%
%ADD23C,0.07677*%
%ADD24C,0.07000*%
%ADD25OC8,0.07000*%
%ADD26C,0.01000*%
%ADD27C,0.03962*%
D10*
X0245848Y0677719D03*
D11*
X0245848Y0658034D03*
X0293092Y0658034D03*
X0293092Y0677719D03*
D12*
X0344273Y0387655D03*
D13*
X0344273Y0437655D03*
D14*
X0408367Y0444899D03*
X0413367Y0299899D03*
X0403289Y0264899D03*
X0233210Y0300135D03*
D15*
X0233210Y0329662D03*
X0413131Y0264899D03*
X0433052Y0299899D03*
X0428052Y0444899D03*
D16*
X0370355Y0504899D03*
D17*
X0326064Y0504899D03*
D18*
X0200449Y0233750D03*
X0200449Y0243750D03*
X0200449Y0253750D03*
X0422876Y0386038D03*
X0422876Y0396038D03*
X0422876Y0406038D03*
X0466898Y0241424D03*
X0466898Y0231424D03*
X0466898Y0221424D03*
D19*
X0262462Y0355670D02*
X0262462Y0357471D01*
X0262011Y0357922D01*
X0261111Y0357922D01*
X0260660Y0357471D01*
X0260660Y0357021D01*
X0261111Y0356571D01*
X0262462Y0356571D01*
X0262462Y0355670D02*
X0262011Y0355220D01*
X0261111Y0355220D01*
X0260660Y0355670D01*
X0259515Y0355670D02*
X0259065Y0355220D01*
X0258164Y0355220D01*
X0257714Y0355670D01*
X0259515Y0357471D01*
X0259515Y0355670D01*
X0257714Y0355670D02*
X0257714Y0357471D01*
X0258164Y0357922D01*
X0259065Y0357922D01*
X0259515Y0357471D01*
X0256569Y0357922D02*
X0254767Y0355220D01*
X0253622Y0355670D02*
X0253172Y0355220D01*
X0252271Y0355220D01*
X0251821Y0355670D01*
X0253622Y0357471D01*
X0253622Y0355670D01*
X0251821Y0355670D02*
X0251821Y0357471D01*
X0252271Y0357922D01*
X0253172Y0357922D01*
X0253622Y0357471D01*
X0250676Y0357471D02*
X0250225Y0357922D01*
X0249325Y0357922D01*
X0248874Y0357471D01*
X0247729Y0357922D02*
X0245928Y0355220D01*
X0244783Y0355670D02*
X0244332Y0355220D01*
X0243432Y0355220D01*
X0242981Y0355670D01*
X0244783Y0357471D01*
X0244783Y0355670D01*
X0244783Y0357471D02*
X0244332Y0357922D01*
X0243432Y0357922D01*
X0242981Y0357471D01*
X0242981Y0355670D01*
X0241836Y0355220D02*
X0240035Y0355220D01*
X0240935Y0355220D02*
X0240935Y0357922D01*
X0240035Y0357021D01*
X0248874Y0355220D02*
X0250676Y0357021D01*
X0250676Y0357471D01*
X0250676Y0355220D02*
X0248874Y0355220D01*
D20*
X0223485Y0357970D02*
X0216085Y0357970D01*
X0216085Y0367970D02*
X0223485Y0367970D01*
X0223485Y0377970D02*
X0216085Y0377970D01*
X0216085Y0387970D02*
X0223485Y0387970D01*
X0223485Y0397970D02*
X0216085Y0397970D01*
X0216085Y0407970D02*
X0223485Y0407970D01*
X0223485Y0417970D02*
X0216085Y0417970D01*
X0216085Y0427970D02*
X0223485Y0427970D01*
X0276085Y0427970D02*
X0283485Y0427970D01*
X0283485Y0417970D02*
X0276085Y0417970D01*
X0276085Y0407970D02*
X0283485Y0407970D01*
X0283485Y0397970D02*
X0276085Y0397970D01*
X0276085Y0387970D02*
X0283485Y0387970D01*
X0283485Y0377970D02*
X0276085Y0377970D01*
X0276085Y0367970D02*
X0283485Y0367970D01*
X0283485Y0357970D02*
X0276085Y0357970D01*
D21*
X0420180Y0603708D02*
X0420180Y0611208D01*
X0430180Y0611208D02*
X0430180Y0603708D01*
X0276000Y0608583D02*
X0276000Y0616083D01*
X0266000Y0616083D02*
X0266000Y0608583D01*
D22*
X0206895Y0712458D03*
X0489965Y0711423D03*
D23*
X0469965Y0711423D03*
X0449965Y0711423D03*
X0246895Y0712458D03*
X0226895Y0712458D03*
D24*
X0322165Y0708366D03*
X0322165Y0698366D03*
X0322165Y0688366D03*
X0322165Y0678366D03*
X0322165Y0668366D03*
X0322165Y0658366D03*
X0322165Y0648366D03*
X0322165Y0638366D03*
X0332165Y0638366D03*
X0332165Y0648366D03*
X0322165Y0628366D03*
X0322165Y0618366D03*
X0322165Y0608366D03*
X0322165Y0598366D03*
X0382165Y0598366D03*
X0382165Y0608366D03*
X0382165Y0618366D03*
X0382165Y0628366D03*
X0382165Y0638366D03*
X0382165Y0648366D03*
X0382165Y0658366D03*
X0382165Y0668366D03*
X0382165Y0678366D03*
X0382165Y0688366D03*
X0382165Y0698366D03*
X0382165Y0708366D03*
D25*
X0377165Y0588366D03*
X0367165Y0588366D03*
X0357165Y0588366D03*
X0347165Y0588366D03*
X0337165Y0588366D03*
X0327165Y0588366D03*
D26*
X0328210Y0587399D01*
X0335710Y0587399D01*
X0337165Y0588366D01*
X0338210Y0589899D01*
X0373210Y0624899D01*
X0373210Y0689899D01*
X0380710Y0697399D01*
X0382165Y0698366D01*
X0375710Y0702399D02*
X0375710Y0709899D01*
X0383210Y0717399D01*
X0488210Y0717399D01*
X0488210Y0712399D01*
X0489965Y0711423D01*
X0408210Y0682399D02*
X0408210Y0444899D01*
X0408367Y0444899D01*
X0410710Y0444899D01*
X0410710Y0407399D01*
X0418210Y0399899D01*
X0418210Y0302399D01*
X0415710Y0299899D01*
X0413367Y0299899D01*
X0428210Y0302399D02*
X0428210Y0399899D01*
X0423210Y0404899D01*
X0422876Y0406038D01*
X0423210Y0407399D01*
X0425710Y0409899D01*
X0425710Y0444899D01*
X0428052Y0444899D01*
X0403210Y0419899D02*
X0403210Y0657399D01*
X0383210Y0677399D01*
X0382165Y0678366D01*
X0375710Y0702399D02*
X0323210Y0649899D01*
X0322165Y0648366D01*
X0322165Y0668366D02*
X0323210Y0669899D01*
X0330710Y0677399D01*
X0330710Y0712399D01*
X0325710Y0717399D01*
X0253210Y0717399D01*
X0253210Y0434899D01*
X0230710Y0412399D01*
X0230710Y0387399D01*
X0220710Y0377399D01*
X0219785Y0377970D01*
X0219785Y0367970D02*
X0220710Y0367399D01*
X0260710Y0407399D01*
X0260710Y0707399D01*
X0320710Y0707399D01*
X0322165Y0708366D01*
X0328210Y0709899D02*
X0323210Y0714899D01*
X0255710Y0714899D01*
X0255710Y0432399D01*
X0275710Y0442399D02*
X0275710Y0459899D01*
X0305710Y0489899D01*
X0305710Y0672399D01*
X0320710Y0687399D01*
X0322165Y0688366D01*
X0322165Y0678366D02*
X0320710Y0677399D01*
X0315710Y0672399D01*
X0315710Y0534899D01*
X0335710Y0539899D02*
X0383210Y0587399D01*
X0383210Y0589899D01*
X0375710Y0597399D01*
X0375710Y0642399D01*
X0380710Y0647399D01*
X0382165Y0648366D01*
X0382165Y0628366D02*
X0383210Y0627399D01*
X0388210Y0622399D01*
X0388210Y0402399D01*
X0390710Y0399899D01*
X0403210Y0419899D02*
X0403210Y0264899D01*
X0403289Y0264899D01*
X0413131Y0264899D02*
X0433210Y0264899D01*
X0433210Y0299899D01*
X0433052Y0299899D01*
X0430710Y0299899D01*
X0428210Y0302399D01*
X0433210Y0264899D02*
X0465710Y0232399D01*
X0466898Y0231424D01*
X0465710Y0222399D02*
X0466898Y0221424D01*
X0465710Y0222399D02*
X0398210Y0222399D01*
X0398210Y0574899D01*
X0420710Y0604899D02*
X0420710Y0607399D01*
X0420180Y0607458D01*
X0420710Y0604899D02*
X0433210Y0592399D01*
X0433210Y0379899D01*
X0438210Y0377399D02*
X0438210Y0599899D01*
X0430710Y0607399D01*
X0430180Y0607458D01*
X0408210Y0682399D02*
X0383210Y0707399D01*
X0382165Y0708366D01*
X0328210Y0709899D02*
X0328210Y0704899D01*
X0323210Y0699899D01*
X0322165Y0698366D01*
X0278210Y0622399D02*
X0268210Y0622399D01*
X0268210Y0612399D01*
X0266000Y0612333D01*
X0276000Y0612333D02*
X0275710Y0609899D01*
X0268210Y0602399D01*
X0268210Y0389899D01*
X0278210Y0389899D01*
X0279785Y0387970D01*
X0279785Y0397970D02*
X0278210Y0399899D01*
X0270710Y0399899D01*
X0270710Y0594899D01*
X0283210Y0607399D01*
X0283210Y0617399D01*
X0278210Y0622399D01*
X0245848Y0658034D02*
X0245710Y0659899D01*
X0238210Y0667399D01*
X0238210Y0702399D01*
X0228210Y0712399D01*
X0226895Y0712458D01*
X0335710Y0539899D02*
X0335710Y0369899D01*
X0200710Y0234899D01*
X0200449Y0233750D01*
X0200449Y0243750D02*
X0200710Y0244899D01*
X0233210Y0277399D01*
X0233210Y0300135D01*
X0279785Y0427970D02*
X0280710Y0429899D01*
X0280710Y0459899D01*
X0325710Y0504899D01*
X0326064Y0504899D01*
X0345710Y0482399D02*
X0345710Y0439899D01*
X0344273Y0437655D01*
X0345710Y0482399D02*
X0368210Y0504899D01*
X0370355Y0504899D01*
X0418210Y0399899D02*
X0420710Y0397399D01*
X0422876Y0396038D01*
X0438210Y0377399D02*
X0433210Y0372399D01*
D27*
X0433210Y0372399D03*
X0433210Y0379899D03*
X0403210Y0419899D03*
X0390710Y0399899D03*
X0275710Y0442399D03*
X0255710Y0432399D03*
X0315710Y0534899D03*
X0398210Y0574899D03*
M02*
